<svg width="22" height="19" viewBox="0 0 22 19" fill="none" xmlns="http://www.w3.org/2000/svg">
<g id="User" opacity="0.7" clip-path="url(#clip0_115_73)">
<path id="Icon" d="M17.612 16.7113V15.1839C17.612 14.3736 17.2533 13.5966 16.6148 13.0237C15.9764 12.4508 15.1104 12.1289 14.2075 12.1289H7.39842C6.49548 12.1289 5.62953 12.4508 4.99106 13.0237C4.35259 13.5966 3.9939 14.3736 3.9939 15.1839V16.7113M14.2075 6.01901C14.2075 7.70621 12.6832 9.07396 10.8029 9.07396C8.92268 9.07396 7.39842 7.70621 7.39842 6.01901C7.39842 4.3318 8.92268 2.96405 10.8029 2.96405C12.6832 2.96405 14.2075 4.3318 14.2075 6.01901Z" stroke="#303030" stroke-width="4" stroke-linecap="round" stroke-linejoin="round"/>
</g>
<defs>
<clipPath id="clip0_115_73">
<rect width="20.4271" height="18.3297" fill="white" transform="translate(0.589355 0.672852)"/>
</clipPath>
</defs>
</svg>
